<?xml version="1.0" encoding="utf-8"?>
<!-- Generator: Adobe Illustrator 21.1.0, SVG Export Plug-In . SVG Version: 6.00 Build 0)  -->
<svg version="1.1" id="Layer_1" xmlns="http://www.w3.org/2000/svg" xmlns:xlink="http://www.w3.org/1999/xlink" x="0px" y="0px"
	 viewBox="0 0 512 512" style="enable-background:new 0 0 512 512;" xml:space="preserve">
<style type="text/css">
	.st0,.page{fill:#7384a4;}
</style>
<g transform="matrix(1 0 0 -1 0 480)">
	<path class="page" d="M329,480c4,0,9-1,12-5l118-120c4-3,5-8,5-12V16c0-27-21-48-48-48H96c-27,0-48,21-48,48v416c0,26,21,48,48,48H329z M432,328
		h-70c-27,0-48,21-48,48v72H96c-9,0-16-7-16-16V16c0-9,7-16,16-16h320c9,0,16,7,16,16V328z M346,425v-49c0-9,7-16,16-16h48L346,425z
		"/>
</g>
<g>
	<path class="st0" d="M228.2,109.4c0,5.4-0.5,14.4,2.2,16.2c7.6,5.1,20.4,8.6,24.4,13.4c1.1,1.3-0.2,10-3.2,9.3
		c-20.4-4.5-21.3-4.2-36.4-4.1c-1.2,0-4.4-6.3-4.6-10.5c-0.1-2.6,3.7-5.3,5.1-9.6c2.3-7.1,0.5-40,1.3-62.3c0.2-5,0.7-6.9,5.5-6.9
		c4.5,0,5.1,3.1,5.1,6.9C227.4,77.7,228.2,93.9,228.2,109.4z"/>
	<path class="st0" d="M216.3,59.9c0-4.7,6.2-7.8,8.6-4.7"/>
	<path class="st0" d="M252.8,138.5c3.1,3.1,0,10.9-6.2,8.5c-10.9-3.9-21-2.3-31.9-3.9c-3.1-0.8-3.9-6.2-3.9-9.3"/>
	<path class="st0" d="M227.2,77c0,14.8-0.8,28.8,0.8,43.5c0,1.6,1.5,3.9,2.3,4.7"/>
	<path class="st0" d="M310.2,279.2c1.5-0.4,12-0.9,17.1,0c1.4,0.3,2.3,1.3,2.7,1.8c1.5,1.9,1.3,9.8,1.2,12.1
		c-0.3,5.1-2.9,7.9-2.9,12.4c0.4,35.6,1.2,77.7-0.7,85.1c-3.3,12.6-2.8,14.8-7.8,15.2c-1.4,0.1-3-0.3-3.9-4.5c-0.6-3.1-1-8.2-1-14.6
		c-0.2-14.7,0.1-52.6-0.5-67.4c-0.6-13.4-4.1-14.3-5.1-15c-1.3-0.9-3-1.4-3.4-3.6c-0.8-4.6,0.7-15.3,2.2-19.1
		C308.3,281,309,279.5,310.2,279.2z"/>
	<path class="st0" d="M336.8,260.5"/>
	<path class="st0" d="M337.2,437.5c-12.1,0-30.5,0.7-34-1.6c-2.4-1.5-2.1-5-2.3-11.7c-1.2-45.1,0.4-90.1-0.3-135.2
		c0-3.9-1.3-10.2-6.7-10.2c-7,0-20.3-0.6-21.6,0.5c-1,0.5-1.8,1.1-2.3,2.3c-1.9,4.2-3.2,14.4-2.7,19c0.2,1.6,1.1,3.2,3.5,3.8
		c6.6,1.5,9.9,5.2,10.1,15.1c0.5,34,1,100.6-3.4,111.7c-2.2,5.5-12.5,9.2-15.2,3.4c-2-4.4-1.8-104.4-1.8-145.6
		c0-7.2-2.3-10.3-10.3-10.3c-10,0-19.2-0.1-29.4,0c-0.8,0-2.5,0.5-3.3,2.6c-2.3,5.6-3.5,19-2.3,21c0.4,0.7,0.8,1.7,3.4,2
		c13.4,1.4,19.6,7.7,19.9,21.4c0.5,21.2,3.5,100.7-5.7,109.1c-3.8,3.4-17.9,2.9-21.2,1.7c-2.3-0.8-3.7-2.7-4-5
		c-2.5-24.2,1.3-142.9-1.4-149c-1-2.3-2.1-2.8-4.3-3.4c-3.8-1.1-21.5,0.2-24.8-1.1c-0.7-0.3-2.1-0.6-2.2-2.1
		c-0.3-4.3,0-8.9,1.7-12.4c0.8-1.7,3.3-1.8,4.3-1.8c52.2-0.1,126.6,0.4,154.7-0.5c1.6,0,4.6-0.4,5.5-3.1c1.1-3.3,2.3-11.5,1.6-13.8
		c-0.4-1.4-1-1.9-2.8-2.3c-3.1-0.4-117-0.2-175.3-1c-3.1,0-8.6,0.4-9.3-2.3c-0.8-2.8-0.6-8.6,0.8-11.4c5.7-11.4,10.9-8.8,14.5-25.4
		c2.2-10-1.3-18.1,3.6-26.2c6.6-10.7,11.5-14.2,16.1-22c2.9-4.9-3.1-12.2-8.6-10.6c-3.9,1.5-27.7,17.4-40.4,38.9
		c-10.1,17.1-13.8,35.5-21,53.7c-1.8,4.5-4.4,5.7-11.7,6.4c-4.5,0.5-6.3,16.4-3.4,18.4c0.6,0.4,1.8,0.8,2.2,0.9
		c6.6,1.4,8.9,9.4,9.1,17.3c0,0,1.6,134.9-2.3,149.2c-2.7,10.1-5.3,8.8-7.8,9.9c-0.2,0.1-1.3,0.5-1.7,1.6c-1.1,2.8-2.3,9.6-1.4,13.2
		c0.3,1.3,0.8,2.1,2.5,2.1c88.9,0,194.4,0,231.6,0c1.9,0,2.8-0.4,3.6-3.2c1-3.5,1.8-8.5,1.4-11.3C341.7,437.5,339,437.5,337.2,437.5
		z M139.2,433.2c-4.2,4.6-8.1,6.3-8.2,0.8c-0.6-37.3-0.1-115.5,0.4-117.8c1-4.3,6.8-6.4,9.7,0.4C144.7,324.8,146,425.6,139.2,433.2z
		 M180.1,433c-4.2,4.9-13.4,6.6-15.4,1.2c-3.2-8.6-1.5-123.9-1-126.2c0.9-4.5,9-4,11.9-1.9c6.8,4.8,7.8,8.7,8.5,19.6
		C186,356.7,186.5,425.6,180.1,433z"/>
</g>
</svg>
