<?xml version="1.0" encoding="utf-8"?>
<!-- Generator: Adobe Illustrator 24.1.3, SVG Export Plug-In . SVG Version: 6.00 Build 0)  -->
<svg version="1.1" id="Layer_1" xmlns="http://www.w3.org/2000/svg" xmlns:xlink="http://www.w3.org/1999/xlink" x="0px" y="0px"
	 viewBox="0 0 512 512" style="enable-background:new 0 0 512 512;" xml:space="preserve">
<style type="text/css">
	.st0{fill:#FFCD00;}
	.st1{stroke:#FFFFFF;stroke-miterlimit:10;}
	.st2{fill:#7384A4;}
	.st3{clip-path:url(#SVGID_3_);}
	.st4{fill:none;}
	.st5{fill:#231F20;}
</style>
<polygon class="st0" points="336.1,51.2 396.5,70.3 457,133 336.1,133 "/>
<rect x="66" y="25" class="st1" width="270.1" height="108"/>
<g transform="matrix(1 0 0 -1 0 480)">
	<path class="st2" d="M329,480c4,0,9-1,12-5l118-120c4-3,5-8,5-12V16c0-27-21-48-48-48H96c-27,0-48,21-48,48v416c0,26,21,48,48,48
		H329z M432,328h-70c-27,0-48,21-48,48v72H96c-9,0-16-7-16-16V16c0-9,7-16,16-16h320c9,0,16,7,16,16V328z M346,425v-49
		c0-9,7-16,16-16h48L346,425z"/>
</g>
<g>
	<path class="st0" d="M118.6,61.5l-4.3,0l0,32.1l4.3,0l0,11.6l-23.6,0l0-11.6l4.3,0l0-32.1l-4.3,0L95,50l23.6,0L118.6,61.5z"/>
	<path class="st0" d="M150.3,105.2l-17.1,0c-6.2,0-10.3-4.2-10.3-11.1l0-33c0-6.9,4.1-11.2,10.2-11.2l17.1,0
		c6.2,0,10.3,4.3,10.3,11.1l0,33C160.6,100.9,156.5,105.2,150.3,105.2z M145.5,93.6l0-32.1l-7.4,0l0,32.1L145.5,93.6z"/>
	<path class="st0" d="M167.2,61.4l-3.8,0l0-11.5l22.4,0l0,11.6l-4.2,0l3.9,26.6l7.9-38.2l11.3,0l8.5,38.2l3-26.6l-3.9,0l0-11.6
		l22.1,0l0,11.6l-3.7,0l-6.6,43.8l-18,0l-7-32.6l-7.1,32.5l-17.3,0L167.2,61.4z"/>
	<path class="st0" d="M230.6,93.4l4.1,0l8-43.6l24.1,0l8,43.6l3.8,0l0,11.6l-18,0l-1.7-13.5l-8.9,0l-1.6,13.5l-17.7,0L230.6,93.4
		L230.6,93.4z M257.9,81.4l-3.4-22.3l-3.5,22.3L257.9,81.4z"/>
	<g>
		<defs>
			<polygon id="SVGID_1_" points="95.6,50.6 96.2,50.6 95.6,51.2 			"/>
		</defs>
		<defs>
			<polygon id="SVGID_2_" points="94.4,49.4 93.9,49.4 94.4,48.8 			"/>
		</defs>
		<use xlink:href="#SVGID_1_"  style="overflow:visible;fill:#FFCD00;"/>
		<use xlink:href="#SVGID_2_"  style="overflow:visible;fill:#FFCD00;"/>
		<clipPath id="SVGID_3_">
			<use xlink:href="#SVGID_1_"  style="overflow:visible;"/>
		</clipPath>
		<clipPath id="SVGID_4_" class="st3">
			<use xlink:href="#SVGID_2_"  style="overflow:visible;"/>
		</clipPath>
	</g>
</g>
<path class="st4" d="M345.3,310h0.6c-0.2-0.3-0.4-0.6-0.6-1C345.2,309.3,345.2,309.6,345.3,310z"/>
<path class="st0" d="M387.6,288c1-1.3,2.2-2.5,3.6-3.6c-0.9-3.4-2.3-6.7-4.2-9.6c0.8,2.5,1.2,5.2,1.2,7.9
	C388.1,284.5,387.9,286.3,387.6,288z"/>
<path class="st0" d="M385.7,315.6l-27.3,1.2c-7.6-0.5-14.9-3.7-20.4-8.9c-4.6-4.9-7.8-11.1-9.1-17.7c-1.4-4-2-8.3-1.6-12.5
	c0.9-5.6,3.5-10.7,7.4-14.7l0,0c0,0-0.9-0.3-2.7-0.3l0,0c-5.7-1-11.5-1.2-17.2-0.6c-3.8-0.4-7.5-0.2-11.2,0.6l0,0
	c-3.3,0.4-6.6,1-9.9,1.9c-2.3,0.6-4.6,1.4-6.9,2.2l0.9-0.5c1.9,2.7,3.3,5.8,3.9,9.1c0.4,3,0.4,6.1,0,9.1c0,4-0.4,7.9-1.3,11.8
	c-2.1,6.1-5.9,11.4-11,15.3c-8.4,7.1-26.1,15.1-41.4,6.9c-8.8-5.2-14.9-13.8-17-23.7c-0.4-3.2-0.5-6.5-0.5-9.7
	c-0.3-2.8-0.3-5.7,0-8.6c0.9-4.8,3.1-9.3,6.2-13.1c-10.2,0.5-20.4,0.2-30.6-0.9c0-0.4,4.5-1.4,4.8-0.6c0.3,0.8,0,0.6-1,1.3
	c-3.1-0.6-6.2-0.6-9.3,0c-1.2,0.2-2.4,0.5-3.6,0.9c-2.6,1-4.9,2.3-7,4.1c-0.8-0.6-1.6-1.2-2.5-1.7c8,12.2,5.7,28.5-5.5,38
	c-9.6,7.7-23,8.7-33.6,2.5c1.5,2.6,3.5,4.9,5.7,6.9c1.5,1.2,3,2.2,4.7,3.1c-9.2-0.8-18.2,2.8-24.3,9.6c-3.8,4.6-6,10.4-6.2,16.4
	v55.4h85.2v23.2H318v-22.8h22h73.1v-55.6c-0.4-5.9-2.6-11.6-6.2-16.4C401.6,320.5,394,316.5,385.7,315.6z M345.3,310
	c0-0.3,0-0.7,0-1c0.2,0.3,0.4,0.6,0.6,0.8L345.3,310z"/>
<path class="st5" d="M387.3,303.9c11.6-15.5,8.4-37.6-7.1-49.2c-6.1-4.5-13.4-7-21-7c-6.1,0-12.2,1.6-17.5,4.7
	c-2.5-1.4-5.3-2.5-8.1-3.1c7-13.8,1.4-30.7-12.4-37.6c-3.9-2-8.2-3-12.5-3c-15.5,0-28.2,12.6-28.2,28.2l0,0c0,4.3,1.1,8.6,3,12.5
	c-1.9,0.4-3.7,1-5.5,1.8c-13.7-8.9-31.5-8.6-44.9,0.7c-2.2-1.1-4.6-1.9-7.1-2.5c7.2-13.8,1.8-30.8-12-38c-13.8-7.2-30.8-1.8-38,12
	c-4.2,8.2-4.2,17.9,0,26c-2.2,0.5-4.3,1.3-6.2,2.2c-17.4-8.5-38.5-1.3-47,16.2c-5.7,11.8-4.5,25.7,3.3,36.3
	c-13.7,3.5-23.4,15.8-23.5,30v58.6c0,1.7,1.4,3.1,3.1,3.1h91.4v20c0,1.7,1.4,3.1,3.1,3.1h111.4c1.7,0,3.1-1.4,3.1-3.1v-20h92
	c1.7,0,3.1-1.4,3.1-3.1v-58.6C410,320,400.7,307.7,387.3,303.9z M359.3,254c16,0,28.9,12.9,28.9,28.9c0,8.5-3.7,16.6-10.2,22.1
	c-10.9,8.9-26.6,8.9-37.5,0c-12.2-10.3-13.7-28.6-3.3-40.7C342.7,257.7,350.8,254,359.3,254z M308.6,214.8c12.1,0,21.9,9.9,21.9,22
	c0,6.4-2.9,12.5-7.8,16.7c-8.2,6.6-20,6.6-28.2,0c-9.2-7.8-10.4-21.6-2.6-30.9C296,217.7,302.1,214.8,308.6,214.8z M256.1,250.8
	c19,0,34.4,15.4,34.4,34.4c0,10.1-4.5,19.7-12.2,26.3c-12.9,10.5-31.4,10.5-44.4,0c-14.5-12.3-16.3-34-4.1-48.5
	C236.3,255.2,245.9,250.8,256.1,250.8z M200.9,214.8c12.1,0,21.9,9.9,21.9,22c0,6.4-2.9,12.5-7.8,16.7c-8.2,6.6-20,6.6-28.2,0
	c-9.2-7.8-10.4-21.6-2.6-30.9C188.3,217.7,194.4,214.8,200.9,214.8z M124.5,282.7c0-16,12.9-28.9,28.9-28.9s28.9,12.9,28.9,28.9
	c0,8.5-3.8,16.6-10.3,22.1c-10.9,8.9-26.6,8.9-37.5,0C128.1,299.3,124.4,291.2,124.5,282.7z M197.8,340.8c-0.4,2.1-0.5,4.2-0.6,6.2
	v42.5h-14.9v-49.9c0-1.7-1.4-3.1-3.1-3.1c-1.7,0-3.1,1.4-3.1,3.1v49.9h-45.2v-49.9c0-1.7-1.4-3.1-3.1-3.1s-3.1,1.4-3.1,3.1v49.9
	h-15.7v-55.6c-0.1-12.5,9-23.2,21.4-25l0.4,0.4c13.1,11.1,32.2,11.1,45.3,0l0.7-0.4c12.3,1.8,21.4,12.5,21.3,25L197.8,340.8z
	 M181.4,303.9c11.3-15,8.8-36.3-5.7-48.3c1.3-0.4,2.6-0.6,3.9-0.7c0.9,1.2,2,2.3,3.1,3.3c10.5,8.8,25.8,8.8,36.3,0
	c1.1-1,2.2-2.1,3.1-3.3c1.9,0.2,3.7,0.6,5.4,1.3c-15.3,15-16.3,39.2-2.3,55.4c-9.1,2.1-17,7.6-22.1,15.4
	C200.7,315.9,192.3,307.1,181.4,303.9z M308.6,392.5v20h-19.2v-58.9c0-1.7-1.4-3.1-3.1-3.1s-3.1,1.4-3.1,3.1v58.9h-54.1v-58.9
	c0-1.7-1.4-3.1-3.1-3.1s-3.1,1.4-3.1,3.1v58.9h-19.5v-65.6c0-15.6,11.9-28.5,27.4-29.8c0.7,0.6,1.5,0.9,2.2,1.5
	c0.7,0.6,2.1,1.5,3.2,2.1l0.9,0.4c11.7,6.3,25.8,6.3,37.5,0l0.9-0.4c1.1-0.6,2.2-1.4,3.2-2.1c1.1-0.7,1.6-0.9,2.3-1.5
	c15.5,1.4,27.3,14.3,27.3,29.8L308.6,392.5z M309.2,327.7c-5.1-8.1-13.2-13.8-22.5-16c14.4-16.5,13-41.4-3.1-56.2
	c1.2-0.3,2.3-0.5,3.5-0.6c1,1.2,2,2.3,3.2,3.3c10.5,8.8,25.8,8.8,36.3,0c1.1-1,2.2-2.1,3.2-3.3c2.1,0.2,4.3,0.8,6.2,1.6
	c-13.7,12.1-15.8,32.8-4.8,47.4C320.1,307.1,311.6,316.3,309.2,327.7z M403.7,389.4h-15.5v-49.9c0-1.7-1.4-3.1-3.1-3.1
	s-3.1,1.4-3.1,3.1v49.9h-45.2v-49.9c0-1.7-1.4-3.1-3.1-3.1s-3.1,1.4-3.1,3.1v49.9h-15.7v-55.5c-0.1-12.5,9-23.1,21.3-25l0.4,0.4
	c13.1,11.1,32.2,11.1,45.3,0c0.2-0.1,0.3-0.3,0.4-0.4c12.4,1.8,21.5,12.5,21.4,25V389.4z"/>
</svg>
