<?xml version="1.0" encoding="utf-8"?>
<!-- Generator: Adobe Illustrator 24.1.3, SVG Export Plug-In . SVG Version: 6.00 Build 0)  -->
<svg version="1.1" id="Layer_1" xmlns="http://www.w3.org/2000/svg" xmlns:xlink="http://www.w3.org/1999/xlink" x="0px" y="0px"
	 viewBox="0 0 50 50" style="enable-background:new 0 0 50 50;" xml:space="preserve">
<style type="text/css">
	.st0{fill:none;}
	.st1{fill:#FFCD00;}
	.st2{fill:#231F20;}
</style>
<path class="st0" d="M39,24.2L39,24.2c0.1-0.1,0-0.1,0-0.2C39,24.1,39,24.1,39,24.2z"/>
<path class="st1" d="M45.8,20.6c0.2-0.2,0.4-0.4,0.6-0.6c-0.1-0.5-0.4-1.1-0.7-1.5c0.1,0.4,0.2,0.8,0.2,1.3
	C45.9,20.1,45.8,20.4,45.8,20.6z"/>
<path class="st1" d="M45.5,25.1l-4.4,0.2c-1.2-0.1-2.4-0.6-3.3-1.4c-0.7-0.8-1.2-1.8-1.5-2.8c-0.2-0.6-0.3-1.3-0.2-2
	c0.1-0.9,0.6-1.7,1.2-2.4l0,0c0,0-0.2,0-0.4,0l0,0c-0.9-0.2-1.8-0.2-2.8-0.1c-0.6-0.1-1.2,0-1.8,0.1l0,0c-0.5,0.1-1.1,0.2-1.6,0.3
	c-0.4,0.1-0.7,0.2-1.1,0.4l0.1-0.1c0.3,0.4,0.5,0.9,0.6,1.5c0.1,0.5,0.1,1,0,1.5c0,0.6-0.1,1.3-0.2,1.9c-0.3,1-0.9,1.8-1.8,2.5
	c-1.4,1.1-4.2,2.4-6.6,1.1c-1.4-0.8-2.4-2.2-2.7-3.8c-0.1-0.5-0.1-1-0.1-1.6c0-0.5,0-0.9,0-1.4c0.1-0.8,0.5-1.5,1-2.1
	c-1.6,0.1-3.3,0-4.9-0.1c0-0.1,0.7-0.2,0.8-0.1s0,0.1-0.2,0.2c-0.5-0.1-1-0.1-1.5,0c-0.2,0-0.4,0.1-0.6,0.1
	c-0.4,0.2-0.8,0.4-1.1,0.7c-0.1-0.1-0.3-0.2-0.4-0.3c1.3,2,0.9,4.6-0.9,6.1c-1.5,1.2-3.7,1.4-5.4,0.4c0.2,0.4,0.6,0.8,0.9,1.1
	C7,25,7.3,25.2,7.5,25.3c-1.5-0.1-2.9,0.4-3.9,1.5c-0.6,0.7-1,1.7-1,2.6v8.9h13.6v3.7h18.4v-3.7h3.5h11.7v-8.9c-0.1-1-0.4-1.9-1-2.6
	C48,25.9,46.8,25.2,45.5,25.1z M39,24.2c0-0.1,0-0.1,0-0.2C39,24,39.1,24.1,39,24.2L39,24.2z"/>
<path class="st2" d="M45.7,23.2c1.9-2.5,1.4-6-1.1-7.9c-1-0.7-2.1-1.1-3.4-1.1c-1,0-1.9,0.3-2.8,0.8c-0.4-0.2-0.8-0.4-1.3-0.5
	c1.1-2.2,0.2-4.9-2-6c-0.6-0.3-1.3-0.5-2-0.5c-2.5,0-4.5,2-4.5,4.5l0,0c0,0.7,0.2,1.4,0.5,2c-0.3,0.1-0.6,0.2-0.9,0.3
	c-2.2-1.4-5-1.4-7.2,0.1c-0.4-0.2-0.7-0.3-1.1-0.4c1.2-2.2,0.3-4.9-1.9-6.1c-2.2-1.2-4.9-0.3-6.1,1.9c-0.7,1.3-0.7,2.9,0,4.2
	c-0.3,0.1-0.7,0.2-1,0.4c-2.8-1.4-6.2-0.2-7.5,2.6c-0.9,1.9-0.7,4.1,0.5,5.8c-2.2,0.6-3.7,2.5-3.8,4.8v9.4c0,0.3,0.2,0.5,0.5,0.5
	h14.6v3.2c0,0.3,0.2,0.5,0.5,0.5h17.9c0.3,0,0.5-0.2,0.5-0.5v-3.2h14.7c0.3,0,0.5-0.2,0.5-0.5V28C49.4,25.8,47.9,23.8,45.7,23.2z
	 M41.2,15.2c2.6,0,4.6,2.1,4.6,4.6c0,1.4-0.6,2.7-1.6,3.5c-1.7,1.4-4.3,1.4-6,0c-1.9-1.7-2.2-4.6-0.5-6.5
	C38.6,15.8,39.9,15.2,41.2,15.2z M33.1,8.9c1.9,0,3.5,1.6,3.5,3.5c0,1-0.5,2-1.2,2.7c-1.3,1.1-3.2,1.1-4.5,0
	c-1.5-1.3-1.7-3.5-0.4-4.9C31.1,9.4,32.1,8.9,33.1,8.9z M24.7,14.7c3,0,5.5,2.5,5.5,5.5c0,1.6-0.7,3.2-2,4.2c-2.1,1.7-5,1.7-7.1,0
	c-2.3-2-2.6-5.4-0.7-7.8C21.5,15.4,23.1,14.7,24.7,14.7z M15.9,8.9c1.9,0,3.5,1.6,3.5,3.5c0,1-0.5,2-1.2,2.7c-1.3,1.1-3.2,1.1-4.5,0
	c-1.5-1.3-1.7-3.5-0.4-4.9C13.9,9.4,14.8,8.9,15.9,8.9z M3.6,19.8c0-2.6,2.1-4.6,4.6-4.6s4.6,2.1,4.6,4.6c0,1.4-0.6,2.7-1.6,3.5
	c-1.7,1.4-4.3,1.4-6,0C4.2,22.5,3.6,21.2,3.6,19.8z M15.4,29.1c-0.1,0.3-0.1,0.7-0.1,1v6.8h-2.4v-8c0-0.3-0.2-0.5-0.5-0.5
	s-0.5,0.2-0.5,0.5v8H4.7v-8c0-0.3-0.2-0.5-0.5-0.5s-0.5,0.2-0.5,0.5v8H1.1V28c0-2,1.4-3.7,3.4-4l0.1,0.1c2.1,1.8,5.2,1.8,7.3,0
	L12,24c2,0.3,3.4,2,3.4,4L15.4,29.1z M12.8,23.2c1.8-2.4,1.4-5.8-0.9-7.7c0.2-0.1,0.4-0.1,0.6-0.1c0.2,0.2,0.3,0.4,0.5,0.5
	c1.7,1.4,4.1,1.4,5.8,0c0.2-0.2,0.3-0.3,0.5-0.5c0.3,0,0.6,0.1,0.9,0.2c-2.4,2.4-2.6,6.3-0.4,8.9c-1.5,0.3-2.7,1.2-3.5,2.5
	C15.8,25.1,14.5,23.7,12.8,23.2z M33.1,37.4v3.2h-3.1v-9.4c0-0.3-0.2-0.5-0.5-0.5s-0.5,0.2-0.5,0.5v9.4h-8.7v-9.4
	c0-0.3-0.2-0.5-0.5-0.5s-0.5,0.2-0.5,0.5v9.4h-3.1V30.1c0-2.5,1.9-4.6,4.4-4.8c0.1,0.1,0.2,0.1,0.4,0.2s0.3,0.2,0.5,0.3l0.1,0.1
	c1.9,1,4.1,1,6,0l0.1-0.1c0.2-0.1,0.4-0.2,0.5-0.3s0.2-0.1,0.4-0.2c2.5,0.2,4.4,2.3,4.4,4.8L33.1,37.4z M33.2,27
	c-0.8-1.3-2.1-2.2-3.6-2.6c2.3-2.6,2.1-6.6-0.5-9c0.2,0,0.4-0.1,0.6-0.1c0.2,0.2,0.3,0.4,0.5,0.5c1.7,1.4,4.1,1.4,5.8,0
	c0.2-0.2,0.4-0.3,0.5-0.5c0.3,0,0.7,0.1,1,0.3c-2.2,1.9-2.5,5.2-0.8,7.6C35,23.7,33.6,25.2,33.2,27z M48.4,36.9h-2.5v-8
	c0-0.3-0.2-0.5-0.5-0.5s-0.5,0.2-0.5,0.5v8h-7.2v-8c0-0.3-0.2-0.5-0.5-0.5s-0.5,0.2-0.5,0.5v8h-2.5V28c0-2,1.4-3.7,3.4-4l0.1,0.1
	c2.1,1.8,5.2,1.8,7.3,0c0,0,0.1,0,0.1-0.1c2,0.3,3.4,2,3.4,4V36.9z"/>
</svg>
